<svg width="215" height="52" viewBox="0 0 215 52" fill="none" xmlns="http://www.w3.org/2000/svg">
<path d="M107.432 0.5C137.07 0.5 163.888 3.35785 183.281 7.9707C192.982 10.2781 200.798 13.0185 206.176 16.043C211.595 19.0904 214.363 22.3237 214.363 25.5537C214.363 28.7837 211.595 32.017 206.176 35.0645C200.798 38.0889 192.982 40.8293 183.281 43.1367C163.888 47.7496 137.07 50.6074 107.432 50.6074C77.7927 50.6074 50.9755 47.7496 31.582 43.1367C21.8813 40.8293 14.0656 38.0889 8.6875 35.0645C3.26855 32.017 0.5 28.7837 0.5 25.5537C0.5 22.3237 3.26855 19.0904 8.6875 16.043C14.0656 13.0185 21.8813 10.2781 31.582 7.9707C50.9755 3.35781 77.7927 0.500012 107.432 0.5Z" fill="#1E5128" stroke="#F1ED92"/>
</svg>
