<svg width="744" height="152" viewBox="0 0 744 152" fill="none" xmlns="http://www.w3.org/2000/svg">
<path d="M32.6763 40.5754L55.1841 93.2828L42.3825 98.7495L19.8747 46.0421L32.6763 40.5754ZM51.772 32.0033L53.2801 35.5348L2.07363 57.4017L0.565574 53.8702L51.772 32.0033ZM53.167 35.27L57.1634 44.6284L56.1922 45.0431L55.8529 44.2485C54.831 41.6925 53.2701 39.9929 51.1703 39.1498C49.1293 38.2816 46.8309 38.3585 44.2748 39.3804L44.1617 39.1155L53.167 35.27ZM51.2065 30.679L52.1491 32.8862L42.4136 35.9997C43.5319 35.5222 44.7134 34.948 45.958 34.2774C47.1775 33.5478 48.2792 32.8686 49.2632 32.2396C50.2222 31.5517 50.8699 31.0316 51.2065 30.679ZM40.1839 93.112L42.559 98.6741L36.6438 101.2L36.2668 100.317C36.2668 100.317 36.4139 100.254 36.7082 100.129C37.0614 99.9779 37.238 99.9025 37.238 99.9025C38.5328 99.3495 39.4332 98.4431 39.9391 97.1832C40.4786 95.8394 40.5014 94.5074 40.0073 93.1874L40.1839 93.112ZM52.544 87.8338L52.8089 87.7207C53.3618 89.0156 54.3103 89.9328 55.6541 90.4724C56.9729 90.9531 58.3091 90.9044 59.6629 90.3263C59.6629 90.3263 59.81 90.2635 60.1043 90.1378C60.4574 89.987 60.634 89.9116 60.634 89.9116L61.011 90.7945L54.9192 93.3959L52.544 87.8338ZM10.9658 53.2913L11.0789 53.5562C8.51429 54.7209 6.83987 56.3406 6.05563 58.4153C5.33026 60.4649 5.50796 62.7551 6.58874 65.286L6.92805 66.0806L5.95689 66.4953L1.96053 57.1369L10.9658 53.2913ZM4.96585e-05 52.5459C0.580041 52.4374 1.4206 52.2873 2.52172 52.0954C3.6817 51.8784 4.91741 51.5943 6.22883 51.2431C7.57397 50.8078 8.77627 50.364 9.83571 49.9116L0.942589 54.7531L4.96585e-05 52.5459ZM79.7662 22.4513L89.6056 19.183C92.0958 18.3558 94.6161 17.8221 97.1664 17.582C99.6965 17.281 102.095 17.3949 104.361 17.9235C106.607 18.3913 108.599 19.4155 110.338 20.9959C112.118 22.4954 113.481 24.6725 114.43 27.5271C115.136 29.6529 115.386 31.93 115.181 34.3585C115.017 36.706 114.246 38.9516 112.867 41.0955C111.549 43.2191 109.483 45.0182 106.668 46.4927C108.611 46.4542 110.635 46.9623 112.738 48.0169C114.903 49.0514 116.673 50.1158 118.048 51.2101C118.452 51.6153 119.139 52.2636 120.11 53.1552C121.06 53.9859 122.223 54.9485 123.598 56.0428C125.014 57.0562 126.48 58.1203 127.997 59.235C129.756 60.4714 131.243 61.3939 132.456 62.0023C133.65 62.55 134.793 62.8446 135.886 62.8863C136.979 62.9279 138.163 62.7369 139.438 62.3132L139.741 63.2243L132.088 65.7663C128.808 66.8557 125.934 67.5408 123.464 67.8215C121.056 68.0821 118.789 67.8571 116.665 67.1465C114.581 66.355 112.467 65.0677 110.324 63.2844C109.515 62.6764 108.625 61.9266 107.655 61.0351C106.664 60.0829 105.674 59.1306 104.683 58.1784C103.692 57.2261 102.772 56.284 101.923 55.3522C101.135 54.4001 100.529 53.5899 100.104 52.9216C98.6691 51.2403 97.2941 50.146 95.9791 49.6386C94.7047 49.0504 93.6423 48.8975 92.792 49.1799L92.5196 48.36C92.5196 48.36 92.7322 48.2894 93.1574 48.1481C93.5825 48.0069 94.1292 47.8253 94.7973 47.6034C96.0728 47.1798 97.2473 46.5536 98.3208 45.7249C99.4348 44.8154 100.296 43.5514 100.905 41.9329C101.494 40.2537 101.607 38.058 101.246 35.3456C101.246 34.9408 101.166 34.3943 101.005 33.706C100.904 32.9976 100.683 32.2283 100.339 31.3981C99.4715 29.1912 98.4512 27.5407 97.2785 26.4466C96.1464 25.2716 94.9531 24.5215 93.6986 24.1963C92.424 23.8105 91.1997 23.6776 90.0258 23.7978C88.8924 23.8371 87.9309 23.9879 87.1413 24.2502C85.9671 24.5727 84.9042 24.9258 83.9526 25.3093C83.0415 25.612 82.333 25.8136 81.8269 25.9143C81.7662 25.9344 81.5742 25.661 81.251 25.094C80.9076 24.4662 80.5743 23.8688 80.251 23.3018C79.9278 22.7348 79.7662 22.4513 79.7662 22.4513ZM80.6773 22.1487L98.8345 76.8119L85.6242 81.2L67.467 26.5367L80.6773 22.1487ZM83.991 75.3695L86.262 80.9881L79.7024 83.167L79.3998 82.2559C79.4605 82.2358 79.6123 82.1853 79.8553 82.1046C80.159 82.0038 80.3716 81.9331 80.493 81.8928C81.8292 81.4489 82.8016 80.6202 83.41 79.4065C84.059 78.1119 84.1919 76.7864 83.8088 75.43L83.991 75.3695ZM69.6165 32.0944L69.4343 32.1549C68.9096 30.7782 68.0201 29.826 66.7658 29.2985C65.5522 28.6901 64.3076 28.5977 63.0321 29.0214C62.8499 29.0819 62.6069 29.1626 62.3033 29.2635C62.0603 29.3442 61.9085 29.3946 61.8477 29.4148L61.5451 28.5037L68.1047 26.3248L69.6165 32.0944ZM96.7458 71.1328L96.928 71.0723C97.4324 72.5907 98.3421 73.6036 99.657 74.111C101.033 74.5981 102.328 74.64 103.543 74.2365C103.543 74.2365 103.664 74.1961 103.907 74.1154C104.15 74.0347 104.332 73.9742 104.454 73.9339L104.756 74.8449L98.1968 77.0238L96.7458 71.1328ZM145.843 6.29335L167.024 35.4573L154.474 38.2114L130.184 7.92324L145.843 6.29335ZM167.617 35.5886L170.32 61.5603L156.571 62.9915L153.887 37.2107L167.617 35.5886ZM177.926 2.95407L184.992 2.21863L166.861 37.5977L162.284 37.2055L177.926 2.95407ZM175.095 9.13638C175.669 7.85404 175.553 6.74005 174.747 5.79444C173.934 4.78516 172.923 4.34347 171.713 4.46936C171.713 4.46936 171.523 4.48923 171.141 4.52899C170.759 4.56874 170.568 4.58862 170.568 4.58862L170.468 3.63378L190.997 1.49703L191.097 2.45187L189.855 2.58107C188.137 2.75996 186.563 3.40633 185.135 4.52019C183.764 5.56376 182.699 6.76849 181.94 8.13437L175.095 9.13638ZM149.791 11.77L134.293 13.0936C133.263 11.8496 131.969 10.8582 130.412 10.1194C128.856 9.38058 127.186 9.10394 125.404 9.28945L124.258 9.40871L124.158 8.45387L153.186 5.43262L153.285 6.38746C153.285 6.38746 153.094 6.40733 152.712 6.44709C152.394 6.48021 152.235 6.49678 152.235 6.49678C150.962 6.62929 150.031 7.27306 149.444 8.4281C148.92 9.57651 149.036 10.6905 149.791 11.77ZM156.231 56.9461L156.857 62.9616L150.078 63.6673L149.978 62.7124C150.042 62.7058 150.233 62.6859 150.551 62.6528C150.933 62.613 151.124 62.5932 151.124 62.5932C152.588 62.4408 153.78 61.8342 154.699 60.7733C155.611 59.6488 156.027 58.383 155.944 56.976L156.231 56.9461ZM169.503 55.5647L169.694 55.5448C169.904 56.9386 170.571 58.0918 171.695 59.0043C172.877 59.8465 174.168 60.1947 175.568 60.049C175.568 60.049 175.759 60.0291 176.141 59.9893C176.523 59.9496 176.714 59.9297 176.714 59.9297L176.813 60.8845L170.129 61.5802L169.503 55.5647ZM257.087 3.61315L253.357 60.8036L239.466 59.8975L243.197 2.70708L257.087 3.61315ZM277.996 4.59219L277.746 8.42404L222.184 4.79977L222.434 0.967913L277.996 4.59219ZM277.764 8.13665L277.102 18.2911L276.048 18.2223L276.105 17.3602C276.348 14.6182 275.723 12.3968 274.23 10.696C272.802 8.99946 270.716 8.02967 267.974 7.78667L267.993 7.49928L277.764 8.13665ZM278.089 3.15524L277.933 5.55015L267.841 3.92982C269.055 4.00897 270.368 4.0305 271.781 3.99442C273.199 3.89448 274.489 3.7862 275.651 3.6696C276.817 3.48912 277.63 3.31767 278.089 3.15524ZM240.051 53.8749L239.658 59.91L233.239 59.4914L233.302 58.5334C233.302 58.5334 233.461 58.5438 233.781 58.5646C234.164 58.5896 234.356 58.6021 234.356 58.6021C235.761 58.6938 236.973 58.2919 237.994 57.3964C239.082 56.4412 239.704 55.2632 239.86 53.8624L240.051 53.8749ZM253.463 54.7497L253.75 54.7684C253.659 56.1734 254.09 57.4202 255.046 58.5087C256.005 59.5333 257.219 60.0935 258.688 60.1893C258.688 60.1893 258.847 60.1997 259.167 60.2206C259.55 60.2456 259.742 60.2581 259.742 60.2581L259.679 61.216L253.069 60.7849L253.463 54.7497ZM231.974 5.14975L231.955 5.43714C229.141 5.31771 226.915 6.00631 225.278 7.50293C223.705 9.00372 222.829 11.1272 222.65 13.8734L222.594 14.7355L221.54 14.6668L222.203 4.51238L231.974 5.14975ZM222.527 -0.469037C223.094 -0.303814 223.912 -0.0580639 224.981 0.268213C226.114 0.598655 227.344 0.903413 228.673 1.18249C230.07 1.40187 231.343 1.54905 232.492 1.62403L222.371 1.92588L222.527 -0.469037ZM325.197 14.9229C330.143 16.2456 334.444 18.1243 338.099 20.5592C341.77 22.9323 344.72 25.7748 346.948 29.0868C349.176 32.3988 350.584 36.0545 351.17 40.0538C351.819 44.0697 351.54 48.3343 350.333 52.8477C349.142 57.2993 347.264 61.1032 344.698 64.2593C342.209 67.3701 339.174 69.8045 335.59 71.5623C332.006 73.3202 328.023 74.3419 323.64 74.6274C319.274 74.8511 314.618 74.3016 309.672 72.979C304.788 71.6728 300.51 69.8332 296.838 67.4602C293.183 65.0253 290.241 62.1519 288.013 58.8399C285.785 55.5279 284.37 51.9031 283.766 47.9656C283.18 43.9663 283.482 39.7408 284.672 35.2892C285.879 30.7758 287.735 26.9328 290.239 23.7601C292.744 20.5874 295.788 18.1222 299.372 16.3643C302.956 14.6065 306.931 13.6157 311.297 13.392C315.679 13.1065 320.313 13.6168 325.197 14.9229ZM310.639 69.3621C314.411 70.3706 317.96 70.2267 321.288 68.9304C324.694 67.5888 327.644 65.2307 330.136 61.856C332.69 58.4978 334.662 54.222 336.051 49.0285C337.456 43.7732 337.89 39.0531 337.353 34.8683C336.894 30.6382 335.516 27.1227 333.217 24.3218C330.997 21.4757 328.001 19.5483 324.23 18.5398C320.52 17.5478 316.993 17.7309 313.649 19.089C310.321 20.3853 307.372 22.7434 304.801 26.1634C302.247 29.5216 300.267 33.8283 298.861 39.0836C297.473 44.2772 297.047 48.9663 297.584 53.1511C298.121 57.336 299.5 60.8514 301.72 63.6976C303.956 66.4819 306.93 68.37 310.639 69.3621ZM411.546 45.7484L390.12 99.2151L377.288 94.0728L398.714 40.6061L411.546 45.7484ZM419.351 78.1446L417.923 81.709L399.833 74.4599L401.262 70.8954L419.351 78.1446ZM433.556 54.5688L432.128 58.1332L409.939 49.2414L411.367 45.677L433.556 54.5688ZM417.994 81.5308L414.852 89.3726L413.961 89.0155L414.246 88.3026C415.032 86.3421 415.063 84.4585 414.339 82.6515C413.675 80.8685 412.285 79.5187 410.17 78.6022L410.241 78.424L417.994 81.5308ZM422.422 70.481L419.28 78.3228L411.527 75.216L411.598 75.0378C413.761 75.8354 415.698 75.8188 417.41 74.988C419.205 74.1216 420.495 72.7081 421.281 70.7477L421.531 70.1239L422.422 70.481ZM432.235 57.8659L428.378 67.4899L427.398 67.0971L427.755 66.206C428.779 63.6514 428.875 61.3459 428.045 59.2894C427.297 57.1972 425.599 55.5858 422.949 54.4551L423.056 54.1877L432.235 57.8659ZM434.092 53.2321L433.235 55.3708L424.11 50.7835C425.239 51.2358 426.451 51.6526 427.746 52.0337C429.125 52.3792 430.384 52.6771 431.525 52.9274C432.69 53.1183 433.545 53.2199 434.092 53.2321ZM379.805 88.5659L377.911 94.3228L371.317 91.6802L371.674 90.7891C371.674 90.7891 371.853 90.8606 372.209 91.0034C372.565 91.1462 372.773 91.2296 372.833 91.2534C374.14 91.7771 375.447 91.7839 376.755 91.2737C378.086 90.7041 379.014 89.7658 379.537 88.4588L379.805 88.5659ZM396.731 46.3273L396.464 46.2201C397.012 44.8538 396.989 43.5346 396.395 42.2626C395.802 40.9905 394.852 40.0927 393.545 39.5689C393.485 39.5451 393.277 39.4618 392.921 39.3189C392.564 39.1761 392.386 39.1047 392.386 39.1047L392.743 38.2136L399.337 40.8561L396.731 46.3273ZM392.191 93.5296L392.369 93.6011C391.905 94.9318 391.928 96.251 392.438 97.5586C393.032 98.8307 394.012 99.7405 395.378 100.288C395.378 100.288 395.556 100.359 395.913 100.502C396.269 100.645 396.477 100.728 396.536 100.752L396.09 101.608L389.585 99.0008L392.191 93.5296ZM457.982 63.5465L438.328 117.69L425.334 112.973L444.988 58.8295L457.982 63.5465ZM427.668 107.386L425.605 113.071L419.017 110.68L419.345 109.777C419.345 109.777 419.525 109.843 419.886 109.974C420.247 110.105 420.458 110.181 420.518 110.203C421.902 110.705 423.269 110.691 424.619 110.16C425.991 109.568 426.917 108.611 427.398 107.288L427.668 107.386ZM440.211 111.939L440.392 112.005C439.972 113.35 440.068 114.679 440.681 115.99C441.376 117.264 442.446 118.163 443.89 118.687C443.89 118.687 444.04 118.742 444.341 118.851C444.702 118.982 444.912 119.058 444.973 119.08L444.645 119.983L438.148 117.624L440.211 111.939ZM455.738 69.166L457.802 63.481L464.299 65.8395L463.881 66.7091C463.881 66.7091 463.731 66.6545 463.43 66.5453C463.129 66.4361 462.949 66.3706 462.889 66.3488C461.445 65.8247 460.048 65.8282 458.698 66.3593C457.407 66.9123 456.481 67.8697 455.919 69.2315L455.738 69.166ZM443.195 64.6128L442.924 64.5145C443.427 63.1309 443.33 61.8022 442.635 60.5286C441.94 59.255 440.871 58.3561 439.427 57.832C439.427 57.832 439.246 57.7665 438.885 57.6354C438.524 57.5044 438.344 57.4389 438.344 57.4389L438.671 56.5365L445.259 58.9278L443.195 64.6128ZM473.472 67.3683L512.628 131.37L510.39 141.832L471.325 77.8591L473.472 67.3683ZM458.118 118.189L456.384 123.782L449.599 121.679L449.883 120.762C449.883 120.762 450.128 120.838 450.617 120.989C451.106 121.141 451.35 121.217 451.35 121.217C452.756 121.653 454.081 121.594 455.324 121.042C456.587 120.428 457.426 119.449 457.843 118.104L458.118 118.189ZM470.405 121.998C470.05 123.362 470.219 124.654 470.912 125.874C471.625 127.033 472.654 127.821 473.999 128.238C473.999 128.238 474.243 128.314 474.732 128.466C475.283 128.636 475.558 128.722 475.558 128.722L475.273 129.639L468.488 127.535L470.222 121.942L470.405 121.998ZM473.472 67.3683L481.862 85.0455L468.671 127.592L456.109 123.697L470.323 77.8499C471.289 74.7323 471.914 72.1786 472.195 70.1888C472.496 68.1379 472.647 67.1125 472.647 67.1125L473.472 67.3683ZM527.724 85.5948L513.624 131.075C512.961 133.215 512.434 135.129 512.045 136.817C511.735 138.463 511.5 139.764 511.338 140.719C511.256 141.631 511.215 142.088 511.215 142.088L510.39 141.832L502.256 123.33L515.162 81.7002L527.724 85.5948ZM525.715 91.1029L527.449 85.5095L534.326 87.6416L534.042 88.5585C534.042 88.5585 533.767 88.4732 533.216 88.3027C532.727 88.1511 532.483 88.0753 532.483 88.0753C531.138 87.6583 529.804 87.7472 528.48 88.342C527.237 88.8946 526.407 89.8433 525.99 91.1882L525.715 91.1029ZM513.428 87.2936C513.783 85.9298 513.605 84.6684 512.892 83.5093C512.26 82.3081 511.24 81.4896 509.834 81.0537C509.834 81.0537 509.559 80.9684 509.009 80.7978C508.52 80.6462 508.275 80.5704 508.275 80.5704L508.56 79.6535L515.345 81.7571L513.611 87.3505L513.428 87.2936ZM561.255 90.2215C568.055 91.0279 573.767 92.8651 578.389 95.7334C583.019 98.538 586.381 102.256 588.474 106.886C590.575 111.454 591.271 116.724 590.563 122.698C589.854 128.672 587.945 133.634 584.834 137.583C581.724 141.533 577.586 144.361 572.421 146.069C567.256 147.776 561.273 148.227 554.473 147.421L533.309 144.911L533.571 141.076C538.401 141.648 542.278 142.108 545.201 142.455C548.188 142.809 550.349 143.065 551.684 143.223C553.082 143.389 553.781 143.472 553.781 143.472C559.755 144.18 564.718 142.545 568.67 138.567C572.622 134.589 575.058 128.723 575.977 120.969C576.896 113.215 575.9 106.942 572.988 102.15C570.084 97.2943 565.644 94.5122 559.67 93.8038C559.67 93.8038 558.971 93.7209 557.573 93.5552C556.175 93.3894 553.918 93.1219 550.804 92.7526C547.69 92.3834 543.591 91.8973 538.506 91.2944L538.947 87.5765L561.255 90.2215ZM549.338 88.8086L542.556 146.008L528.828 144.38L535.611 87.1809L549.338 88.8086ZM529.838 138.313L529.114 144.414L522.251 143.6L522.364 142.647C522.364 142.647 522.554 142.67 522.936 142.715C523.317 142.76 523.539 142.786 523.603 142.794C525.065 142.967 526.364 142.606 527.502 141.709C528.703 140.821 529.386 139.677 529.552 138.279L529.838 138.313ZM535.089 93.2094L534.898 93.1868C535.008 91.7175 534.579 90.4421 533.612 89.3607C532.708 88.2868 531.525 87.6632 530.064 87.4899C530.064 87.4899 529.873 87.4673 529.492 87.4221C529.11 87.3768 528.92 87.3542 528.92 87.3542L529.033 86.4009L535.801 87.2035L535.089 93.2094ZM640.351 85.4049L651.911 119.701C653.792 125.281 656.537 129.218 660.148 131.513C663.819 133.788 667.959 134.148 672.568 132.594C677.359 130.98 680.558 128.247 682.164 124.396C683.831 120.525 683.805 115.941 682.087 110.644L670.19 75.3472L676.194 73.3234L687.907 108.074C690.095 114.564 689.821 120.363 687.085 125.472C684.411 130.561 679.435 134.332 672.157 136.785C663.363 139.749 656.19 140.107 650.637 137.859C645.063 135.551 641.183 131.152 638.995 124.662L627.251 89.8204L640.351 85.4049ZM627.433 89.7591L629.028 94.4896L628.846 94.5509C628.397 93.419 627.655 92.6221 626.622 92.1601C625.588 91.6981 624.495 91.6613 623.343 92.0497C623.343 92.0497 623.13 92.1212 622.706 92.2643C622.281 92.4074 622.069 92.479 622.069 92.479L621.793 91.6602L627.433 89.7591ZM645.718 83.5957L645.994 84.4144C645.994 84.4144 645.782 84.486 645.358 84.6291C644.933 84.7722 644.721 84.8437 644.721 84.8437C643.569 85.2321 642.721 85.9231 642.178 86.9166C641.635 87.9101 641.557 88.9831 641.946 90.1354L641.764 90.1967L640.169 85.4662L645.718 83.5957ZM670.372 75.2859L671.966 80.0164L671.784 80.0777C671.335 78.9458 670.594 78.1489 669.56 77.6869C668.526 77.2249 667.464 77.1778 666.372 77.5458C666.372 77.5458 666.16 77.6174 665.735 77.7605C665.311 77.9035 665.098 77.9751 665.098 77.9751L664.822 77.1564L670.372 75.2859ZM681.561 71.5143L681.837 72.333C681.837 72.333 681.625 72.4046 681.2 72.5476C680.836 72.6703 680.654 72.7316 680.654 72.7316C679.502 73.12 678.624 73.8212 678.02 74.8352C677.477 75.8287 677.4 76.9016 677.788 78.0539L677.606 78.1152L676.012 73.3847L681.561 71.5143ZM697.033 62.5585C698.189 62.0085 699.604 61.4064 701.277 60.752C703.008 60.0701 704.724 59.4309 706.424 58.8343C708.097 58.1799 709.596 57.6795 710.919 57.3332C712.273 56.9016 713.223 56.6625 713.768 56.6159L717.673 67.7279L716.893 68.0991C715.628 65.4408 713.699 63.7714 711.108 63.091C708.516 62.4106 705.486 62.8953 702.019 64.5452C699.245 65.8652 697.28 67.5444 696.123 69.583C695.025 71.5941 694.899 73.6385 695.746 75.7162C696.125 76.8114 696.752 77.6825 697.627 78.3293C698.532 78.8909 699.57 79.2833 700.739 79.5066C701.966 79.7023 703.28 79.8567 704.68 79.97L722.291 81.9026C725.153 81.9585 727.771 82.7682 730.145 84.3318C732.519 85.8954 734.362 88.2788 735.674 91.4821C737.04 94.8009 737.42 98.0575 736.814 101.252C736.265 104.419 734.791 107.353 732.391 110.054C730.021 112.67 726.813 114.941 722.768 116.866C720.283 118.048 717.875 118.946 715.544 119.559C713.214 120.172 711.103 120.503 709.213 120.552C707.38 120.573 705.853 120.343 704.632 119.861C703.619 118.925 702.757 117.634 702.045 115.989C701.305 114.285 700.782 112.514 700.474 110.676C700.139 108.78 700.057 107.118 700.228 105.69L700.921 105.36C701.985 108.044 703.589 110.222 705.732 111.895C707.933 113.542 710.447 114.507 713.276 114.791C716.077 115.017 719.009 114.402 722.072 112.944C725.424 111.35 727.566 109.373 728.5 107.015C729.433 104.658 729.405 102.438 728.415 100.358C727.673 98.7975 726.492 97.658 724.875 96.9394C723.287 96.1355 721.049 95.6767 718.16 95.563L702.138 93.6184C698.534 93.4908 695.475 92.5007 692.964 90.6481C690.51 88.7681 688.755 86.2719 687.7 83.1596C686.669 80.2481 686.35 77.4937 686.744 74.8963C687.196 72.2714 688.302 69.9026 690.061 67.79C691.82 65.6773 694.144 63.9334 697.033 62.5585ZM713.355 55.749L714.011 57.3506L704.735 61.7642L703.993 60.2038L713.355 55.749Z" fill="#1E5128"/>
</svg>
